<?xml version="1.0" encoding="utf-8"?>
<!-- Generator: Adobe Illustrator 15.0.2, SVG Export Plug-In . SVG Version: 6.00 Build 0)  -->
<!DOCTYPE svg PUBLIC "-//W3C//DTD SVG 1.1//EN" "http://www.w3.org/Graphics/SVG/1.1/DTD/svg11.dtd">
<svg version="1.1" id="Layer_1" xmlns="http://www.w3.org/2000/svg" xmlns:xlink="http://www.w3.org/1999/xlink" x="0px" y="0px"
	 width="210px" height="500px" viewBox="0 0 210 500" enable-background="new 0 0 210 500" xml:space="preserve">
<path fill="#BD9778" d="M94.404,124.734l-0.025-0.952c0,0,0.46,9.044-2.233,13.212c-2.693,4.168-11.046,5.419-23.762,10.838
	c-12.715,5.419-23.797,50.859-29.181,60.447c-5.378,9.576-12.6,20.857-16.675,31.057c-1.867,4.674-5.434,14.083-7.295,18.759
	c-1.608,4.041-3.983,14.465-5.489,16.988s-4.585,7.574-7.375,13.638c-0.596,2.924-0.495,9.113,0.498,11.932
	c1.205,3.42,5.371,11.195,8.959,11.723c0.344,0.049,1.027-1.781,1.357-1.891c2.501,0,1.039-3.793,1.304-4.016
	c0.323-0.275-0.905-1.838-1.268-3.037c0-2.33-0.626-3.318-0.799-3.619c-0.48-0.838,0.66-7.221,0.66-7.221l1.598-2.084
	c0,0,0.905,6.824,1.807,9.311c0.355,0.979,1.461,1.803,2.501,1.875c0.49,0.035,1.39-0.559,1.39-0.559l-1.112-4.244
	c0,0-0.03-2.92,0.417-5.545c0.334-1.959,0.419-8.438,0.417-10.427c0-9.24,14.185-20.189,24.386-36.789
	c5.542-9.017,6.714-15.52,10.561-22.233c2.778-8.616,15.841-35.891,15.841-35.891s-3.399,66.758-6.087,104.605
	c-1.351,19.033,3.283,79.375,2.521,98.439c-0.509,12.758,2.94,18.938,2.94,31.705c0,2.865,3.544,26.471-1.042,35.643l-0.039,0.02
	c-4.585,9.172-32.744,22.832-30.511,25.43c1.676,1.676,11.003,4.305,14.058,3.945c8.021-0.936,13.066-4.883,20.702-5.277
	c1.091-0.055,8.428,1.572,10.822-0.82c7.646-7.646,3.295-6.873,4.522-24.674c2.237-6.715,5.488-57.066,7.252-79.859
	c2.675-34.568,9.006-90.078,9.006-90.078s6.331,55.51,9.006,90.078c1.765,22.793,5.017,73.145,7.252,79.859
	c1.228,17.801-3.123,17.027,4.522,24.674c2.394,2.393,9.73,0.766,10.821,0.82c7.637,0.395,12.682,4.342,20.702,5.277
	c3.056,0.359,12.382-2.27,14.058-3.945c2.233-2.598-25.925-16.258-30.51-25.43c-4.586-9.17-1.043-32.775-1.043-35.643
	c0-12.766,3.45-18.947,2.941-31.703c-0.762-19.066,3.872-79.408,2.52-98.441c-2.687-37.847-6.086-104.604-6.086-104.604
	s13.062,27.274,15.842,35.89c3.846,6.715,5.02,13.217,10.561,22.234c10.201,16.598,24.387,27.547,24.387,36.79
	c-0.004,1.986,0.082,8.466,0.416,10.425c0.447,2.627,0.418,5.545,0.418,5.545l-1.112,4.244c0,0,0.899,0.596,1.39,0.561
	c1.039-0.074,2.146-0.896,2.502-1.877c0.901-2.484,1.806-9.311,1.806-9.311l1.597,2.086c0,0,1.142,6.383,0.661,7.219
	c-0.173,0.301-0.799,1.291-0.799,3.619c-0.362,1.197-1.591,2.764-1.269,3.037c0.266,0.225-1.197,4.016,1.305,4.016
	c0.33,0.109,1.014,1.941,1.357,1.891c3.588-0.527,7.753-8.303,8.959-11.723c0.992-2.814,1.093-9.006,0.498-11.932
	c-2.791-6.063-5.871-11.112-7.376-13.638c-1.506-2.523-3.881-12.949-5.488-16.986c-1.862-4.676-5.429-14.088-7.296-18.76
	c-4.075-10.199-11.297-21.48-16.675-31.057c-5.384-9.587-16.467-55.027-29.182-60.447c-12.714-5.419-21.067-6.67-23.761-10.839
	c-2.694-4.168-2.233-13.211-2.233-13.211l-0.024,0.952c17.124-7.148,25.811-26.552,25.811-47.353
	c0-24.751-16.332-44.815-36.477-44.815S68.553,52.651,68.553,77.402c0,21.011,7.661,38.194,25.789,46.477l-0.003-0.076"/>
</svg>
