<?xml version="1.0" encoding="utf-8"?>
<!-- Generator: Adobe Illustrator 15.0.2, SVG Export Plug-In . SVG Version: 6.00 Build 0)  -->
<!DOCTYPE svg PUBLIC "-//W3C//DTD SVG 1.1//EN" "http://www.w3.org/Graphics/SVG/1.1/DTD/svg11.dtd">
<svg version="1.1" id="Layer_1" xmlns="http://www.w3.org/2000/svg" xmlns:xlink="http://www.w3.org/1999/xlink" x="0px" y="0px"
	 width="210px" height="500px" viewBox="0 0 210 500" enable-background="new 0 0 210 500" xml:space="preserve">
<path fill="#F7941E" d="M95.212,30.352c-8.029,3.01-17.926,13.756-21.471,15.509c1.459,0.12,2.814-0.235,0.943,3.667
	c-4.482,9.207-6.238,19.177-10.6,25.645c5.418-4.246,16.117-5.976,18.141-10.903c0,9.68,12.846,10.116,12.846,10.116
	s-7.365-12.738,2.33-15.026c2.92,1.415,0.834,3.773,3.867,12.607c-0.361-8.589,5.336-6.544,6.139-12.607
	c-0.107,4.132,8.369,3.861,8.369,17.072c2.094-3.281,9.17-7.549,9.857-16.828c0,3.303,5.08,8.021,3.727,15.255
	c-1.355,7.233,3.926-11.336,4.656-13.692c2.916,2.831,7.119,21.398,9.898,21.478c-2.639-5.111-1.596-7.313-1.896-11.374
	c-1.543-13.08-5.115-32.344-21.262-36.973C110.647,26.356,95.212,30.352,95.212,30.352z"/>
</svg>
