<?xml version="1.0" encoding="utf-8"?>
<!-- Generator: Adobe Illustrator 15.0.2, SVG Export Plug-In . SVG Version: 6.00 Build 0)  -->
<!DOCTYPE svg PUBLIC "-//W3C//DTD SVG 1.1//EN" "http://www.w3.org/Graphics/SVG/1.1/DTD/svg11.dtd">
<svg version="1.1" id="Layer_1" xmlns="http://www.w3.org/2000/svg" xmlns:xlink="http://www.w3.org/1999/xlink" x="0px" y="0px"
	 width="210px" height="500px" viewBox="0 0 210 500" enable-background="new 0 0 210 500" xml:space="preserve">
<path fill="#EC008C" d="M105.063,369.692c12.01-0.041,34.031,5.604,46.104,2.23c6.982-1.951,26.602-18.014,26.602-18.014
	s-11.07-27.119-14.463-36.268c-5.428-14.639-14.734-43.765-17.809-59.046c-3.619-17.987-5.479-56.332-5.795-74.663
	c-0.244-14.102,3.33-27.074,3.33-36.691l-17.891-5.826c0,0-8.771,6.817-20.531,7.668c0,0,0.604-0.023,0.453-0.036h-0.025
	c-0.15,0.013,0.449,0.036,0.449,0.036c-11.758-0.852-20.529-7.668-20.529-7.668l-17.891,5.826c0,9.618,3.574,22.589,3.33,36.691
	c-0.316,18.331-2.174,56.675-5.793,74.663c-3.076,15.281-12.383,44.407-17.811,59.046c-3.393,9.148-14.465,36.268-14.465,36.268
	s19.621,16.062,26.604,18.014c12.07,3.373,34.094-2.271,46.104-2.23"/>
</svg>
