<?xml version="1.0" encoding="UTF-8" standalone="no"?>
<!-- Created with Inkscape (http://www.inkscape.org/) -->

<svg
   xmlns:dc="http://purl.org/dc/elements/1.1/"
   xmlns:cc="http://creativecommons.org/ns#"
   xmlns:rdf="http://www.w3.org/1999/02/22-rdf-syntax-ns#"
   xmlns:svg="http://www.w3.org/2000/svg"
   xmlns="http://www.w3.org/2000/svg"
   xmlns:sodipodi="http://sodipodi.sourceforge.net/DTD/sodipodi-0.dtd"
   xmlns:inkscape="http://www.inkscape.org/namespaces/inkscape"
   width="25.543112"
   height="121.79858"
   id="svg2"
   version="1.1"
   inkscape:version="0.48.5 r10040"
   sodipodi:docname="paintbrush.svg">
  <defs
     id="defs4" />
  <sodipodi:namedview
     id="base"
     pagecolor="#ffffff"
     bordercolor="#666666"
     borderopacity="1.0"
     inkscape:pageopacity="0.0"
     inkscape:pageshadow="2"
     inkscape:zoom="10.428595"
     inkscape:cx="10.304106"
     inkscape:cy="120.77262"
     inkscape:document-units="px"
     inkscape:current-layer="g3924"
     showgrid="false"
     inkscape:window-width="927"
     inkscape:window-height="749"
     inkscape:window-x="127"
     inkscape:window-y="0"
     inkscape:window-maximized="0"
     fit-margin-top="0"
     fit-margin-left="0"
     fit-margin-right="0"
     fit-margin-bottom="0" />
  <metadata
     id="metadata7">
    <rdf:RDF>
      <cc:Work
         rdf:about="">
        <dc:format>image/svg+xml</dc:format>
        <dc:type
           rdf:resource="http://purl.org/dc/dcmitype/StillImage" />
        <dc:title />
      </cc:Work>
    </rdf:RDF>
  </metadata>
  <g
     inkscape:label="Layer 1"
     inkscape:groupmode="layer"
     id="layer1"
     transform="translate(-208.73029,-481.98844)">
    <g
       id="g3924">
      <path
         transform="translate(-44.887579,4.2870161)"
         d="m 263.1875,477.71875 c -0.28371,-0.0473 -0.45557,0.0119 -0.59375,0.0625 -0.0296,0.0109 -0.10082,0.0219 -0.125,0.0312 -0.0705,0.009 -0.14229,0.009 -0.28125,0.0625 -0.34505,0.14469 -0.63158,0.42448 -0.8125,0.78125 -0.16577,0.32688 -0.23712,0.69101 -0.21875,1.0625 -0.002,-0.0398 -0.004,-0.0339 0,0.0312 0.0652,8.0833 -1.38767,9.48557 -3.3125,13.78125 -0.0805,0.17968 -0.0941,0.28212 -0.0937,0.28125 -0.006,0.01 0.006,0.0199 0,0.0312 -0.0113,0.0198 -0.0202,0.006 -0.0312,0.0312 -0.15852,0.3272 -0.20566,0.50364 -0.375,0.84375 -5.21103,10.46582 -0.41465,17.96487 0.3125,19 -0.20291,7.02415 -0.3179,10.80289 -0.375,12.75 -0.0288,0.98309 -0.0538,1.52137 -0.0625,1.8125 -0.003,0.11322 0.002,0.16772 0,0.21875 -4.4e-4,0.0146 3.3e-4,0.0517 0,0.0625 -0.0221,0.0926 -3.0365,12.75587 -3.53125,27.875 -0.49654,15.17369 1.4751,32.92148 12.03125,42.8125 0,0 0.0312,0.0312 0.0312,0.0312 0,0 0.0312,0.0312 0.0312,0.0312 0,0 0.0625,0.0312 0.0625,0.0312 0,0 0.0312,0 0.0312,0 0,0 0.0312,0.0312 0.0312,0.0312 0,0 0.0312,0.0312 0.0312,0.0312 0,0 0.0625,0.0312 0.0625,0.0312 0,0 0.0312,0 0.0312,0 0,0 0.0625,0.0312 0.0625,0.0312 0,0 0.0312,0 0.0312,0 0,0 0.0625,0.0312 0.0625,0.0312 0,0 0.0312,0 0.0312,0 0,0 0.0312,0 0.0312,0 0,0 0.0625,0 0.0625,0 0,0 0.0312,0 0.0312,0 0,0 0.0625,0 0.0625,0 0,0 0.0625,0 0.0625,0 0,0 0.0312,0 0.0312,0 0,0 0.0625,0 0.0625,0 0,0 0.0312,0 0.0312,0 0,0 0.0312,0 0.0312,0 0,0 0.0625,-0.0312 0.0625,-0.0312 0,0 0.0312,0 0.0312,0 0,0 0.0625,-0.0312 0.0625,-0.0312 0,0 0.0312,0 0.0312,0 0,0 0.0625,-0.0312 0.0625,-0.0312 0,0 0.0312,-0.0312 0.0312,-0.0312 0,0 0.0312,-0.0312 0.0312,-0.0312 0,0 0.0312,0 0.0312,0 0,0 0.0625,-0.0312 0.0625,-0.0312 0,0 0.0312,-0.0312 0.0312,-0.0312 0,0 0.0312,-0.0312 0.0312,-0.0312 10.4966,-9.81584 12.48845,-27.36286 12,-42.4375 -0.4797,-14.80455 -3.38669,-27.07508 -3.5625,-27.8125 0,0 0,-0.0625 0,-0.0625 -2e-5,-0.002 2.1e-4,-0.0248 0,-0.0312 a 0.50440527,0.50440527 0 0 0 0,-0.0312 0.50440527,0.50440527 0 0 0 0,-0.0312 c 0,0 0,-0.0312 0,-0.0312 l -0.625,-14.9375 c 2.86863,-4.45167 3.40572,-9.33975 2.6875,-13.96875 0,0 0.0312,-0.0312 0.0312,-0.0312 0,0 0,-0.0625 0,-0.0625 0,0 0.0312,-0.0312 0.0312,-0.0312 0,0 0,-0.0312 0,-0.0312 0,0 0,-0.0625 0,-0.0625 0,0 0,-0.0312 0,-0.0312 0,0 0,-0.0625 0,-0.0625 0,0 0,-0.0312 0,-0.0312 0,0 0,-0.0625 0,-0.0625 0,0 0,-0.0312 0,-0.0312 0,0 0,-0.0312 0,-0.0312 0,0 0,-0.0625 0,-0.0625 -0.32815,-1.87757 -0.90388,-3.67675 -1.5625,-5.40625 -0.17451,-0.45783 -0.3474,-0.79784 -0.5,-1.15625 -0.66802,-1.57239 -1.41753,-3.05823 -2.25,-4.46875 -0.24386,-0.41333 -0.46182,-0.86304 -0.75,-1.3125 -0.86516,-1.35091 -1.76741,-2.53173 -2.65625,-3.625 -0.13569,-0.16704 -0.36488,-0.47066 -0.59375,-0.75 -0.006,-0.011 -0.024,-0.0199 -0.0312,-0.0312 -0.006,-0.007 0.006,-0.0241 0,-0.0312 -0.006,-0.009 -0.0245,-0.0219 -0.0312,-0.0312 -0.0242,-0.0333 -0.0551,-0.0804 -0.0937,-0.125 -0.0763,-0.0882 -0.12769,-0.079 -0.1875,-0.125 -0.009,-0.0143 -0.0237,-0.0209 -0.0312,-0.0312 1.2e-4,1.6e-4 0.006,-0.0241 0,-0.0312 -0.009,-0.006 -0.0246,-0.0267 -0.0312,-0.0312 -0.0203,-0.0214 -0.0239,-0.0251 -0.0312,-0.0312 -0.0147,-0.0122 -0.037,-0.004 -0.0312,0 -1.46485,-1.64353 -2.71497,-2.77259 -3.875,-3.5 -0.30338,-0.19468 -0.63262,-0.39477 -1.03125,-0.5625 -0.0499,-0.0433 -0.0923,-0.0397 -0.125,-0.0625 a 0.50440527,0.50440527 0 0 0 -0.0312,-0.0312 c 0.002,0.002 -0.0325,-7e-4 -0.0312,0 0.0296,0.0167 -0.20101,-0.247 -0.59375,-0.3125 z"
         id="path3917"
         style="fill:#686868;fill-opacity:1;stroke:none"
         inkscape:original="M 263.09375 478.21875 C 262.9313 478.19166 262.73536 478.25066 262.65625 478.28125 C 262.60826 478.28756 262.50778 478.29291 262.375 478.34375 C 262.14761 478.4391 261.9374 478.6287 261.8125 478.875 C 261.69207 479.11248 261.64143 479.38785 261.65625 479.6875 C 261.6568 479.69863 261.65555 479.70755 261.65625 479.71875 C 261.7268 487.89835 260.21903 489.49515 258.3125 493.75 C 258.27155 493.84139 258.25777 493.94261 258.21875 494.03125 C 258.21339 494.04342 258.19325 494.0494 258.1875 494.0625 C 258.02072 494.40241 257.96688 494.56467 257.78125 494.9375 C 252.55587 505.43215 257.6666 512.91756 258.15625 513.59375 C 257.74268 527.91154 257.71887 528.6108 257.71875 528.625 C 257.71875 528.625 254.68216 541.35251 254.1875 556.46875 C 253.69284 571.58499 255.70438 589.16953 266.0625 598.875 A 0.50440527 0.50440527 0 0 0 266.75 598.875 C 277.04964 589.24335 279.08032 571.8604 278.59375 556.84375 C 278.11338 542.01861 275.17649 529.63951 275.03125 529.03125 A 0.50440527 0.50440527 0 0 0 275.03125 528.9375 C 275.03104 528.93664 275.03144 528.90703 275.03125 528.90625 L 274.40625 513.78125 C 277.33908 509.34147 277.84998 504.46828 277.09375 499.8125 A 0.50440527 0.50440527 0 0 0 277.15625 499.46875 C 276.83576 497.63503 276.27666 495.86747 275.625 494.15625 C 275.4608 493.72546 275.28556 493.37711 275.125 493 C 274.46536 491.44732 273.72733 489.98497 272.90625 488.59375 C 272.65417 488.16648 272.42945 487.73859 272.15625 487.3125 C 271.30428 485.98219 270.41217 484.80228 269.53125 483.71875 C 269.35199 483.49807 269.14471 483.18412 268.90625 482.90625 C 268.90638 482.9064 268.8913 482.87212 268.8125 482.78125 C 268.73174 482.68788 268.63464 482.62305 268.59375 482.59375 C 268.55286 482.56445 268.57426 482.57576 268.5625 482.5625 C 267.0993 480.91334 265.83791 479.82678 264.71875 479.125 C 264.36759 478.89966 264.04891 478.67466 263.65625 478.53125 A 0.50440527 0.50440527 0 0 0 263.625 478.53125 C 263.70069 478.55859 263.62175 478.50237 263.53125 478.4375 C 263.44075 478.37263 263.40253 478.27025 263.09375 478.21875 z "
         inkscape:radius="0.50435483"
         sodipodi:type="inkscape:offset" />
      <g
         id="g3919">
        <path
           sodipodi:nodetypes="ccccc"
           inkscape:connector-curvature="0"
           id="path3847"
           d="m 213.26636,532.9218 c 0,0 -12.12551,50.71499 8.19153,69.75187 20.31705,-18.99937 8.0578,-69.74738 8.0578,-69.74738 -6.56816,-0.60149 -11.09942,-0.79687 -16.24933,-0.004 z"
           style="fill:#f5d712;fill-opacity:1;stroke:none" />
        <path
           sodipodi:nodetypes="csscc"
           inkscape:connector-curvature="0"
           id="path3845"
           d="m 228.91362,517.94462 c 11.41225,-16.70489 -12.10069,-40.08779 -11.7243,-34.08478 0.35664,5.68796 1.42653,4.73997 -3.92296,15.4839 -5.34949,10.74393 0.49038,18.38094 0.49038,18.38094 3.27831,2.62547 15.15688,0.21994 15.15688,0.21994 z"
           style="fill:#e29c45;fill-opacity:1;stroke:none" />
        <path
           style="fill:#6f8384;fill-opacity:1;stroke:#bdc3c7;stroke-width:0.01000000000000000;stroke-linecap:butt;stroke-linejoin:miter;stroke-miterlimit:4;stroke-opacity:0;stroke-dasharray:none"
           d="m 229.58231,533.10494 -0.6241,-15.33521 -15.24605,-0.26747 c -0.44579,15.42436 -0.44185,15.60561 -0.44185,15.60561 5.22241,-0.10092 10.92711,-0.0912 16.312,-0.003 z"
           id="path3853"
           inkscape:connector-curvature="0"
           sodipodi:nodetypes="ccccc" />
      </g>
    </g>
  </g>
</svg>
