<?xml version="1.0" encoding="UTF-8" standalone="no"?>
<!-- Generator: Adobe Illustrator 15.0.2, SVG Export Plug-In . SVG Version: 6.00 Build 0)  -->

<svg
   version="1.1"
   id="Layer_1"
   x="0px"
   y="0px"
   enable-background="new 0 0 210 500"
   xml:space="preserve"
   xmlns="http://www.w3.org/2000/svg"
   xmlns:svg="http://www.w3.org/2000/svg"><defs
   id="defs1037" />
<path
   fill="#00A651"
   d="M104.999,281.055c-13.199,0.206-28.008-0.839-41.652-4.704c1.668-10.074,4.992-49.848,5.23-79.742  l-5.24,7.69c0,0-23.752-11.81-23.213-17.261c4.047-4.137,7.689-13.778,10.631-18.133c3.559-5.268,10.445-17.224,15.545-21.021  c3.9-2.906,18.008-6.469,18.008-6.469c0,0,11.301,9.674,20.691,9.649c9.393-0.025,20.693-9.649,20.693-9.649  c0,0,14.107,3.563,18.01,6.469c5.098,3.796,11.986,15.753,15.543,21.021c2.941,4.355,6.586,13.997,10.631,18.133  c0.539,5.451-23.213,17.261-23.213,17.261l-5.24-7.69c0.238,29.895,3.564,69.668,5.232,79.742  C133.009,280.216,118.2,281.261,104.999,281.055z"
   id="path1032" />
</svg>
